<svg xmlns="http://www.w3.org/2000/svg" version="1.1" xmlns:xlink="http://www.w3.org/1999/xlink" xmlns:svgjs="http://svgjs.com/svgjs" width="512" height="512" x="0" y="0" viewBox="0 0 128 128" style="enable-background:new 0 0 512 512" xml:space="preserve" class=""><g><path d="M64 46.807c-9.48 0-17.193 7.713-17.193 17.193S54.52 81.193 64 81.193 81.193 73.48 81.193 64 73.48 46.807 64 46.807zm0 26.386c-5.069 0-9.193-4.124-9.193-9.193s4.124-9.193 9.193-9.193 9.193 4.124 9.193 9.193-4.124 9.193-9.193 9.193zM42.182 36.524a4 4 0 0 0-5.656 0C29.182 43.869 25.138 53.626 25.138 64s4.044 20.131 11.388 27.475c.78.781 1.805 1.172 2.828 1.172s2.047-.391 2.828-1.171a3.999 3.999 0 0 0 0-5.657C36.35 79.986 33.138 72.237 33.138 64s3.212-15.986 9.044-21.819a4 4 0 0 0 0-5.657z" fill="#2f80ed" data-original="#000000" opacity="1"></path><path d="M11.42 64c0-14.034 5.473-27.235 15.408-37.171a4 4 0 1 0-5.656-5.657C9.725 32.619 3.42 47.829 3.42 64s6.305 31.381 17.752 42.829c.78.78 1.805 1.171 2.828 1.171s2.048-.391 2.828-1.171a3.999 3.999 0 0 0 0-5.657C16.893 91.235 11.42 78.034 11.42 64zM91.475 36.525a3.998 3.998 0 0 0-5.656 0 3.999 3.999 0 0 0 0 5.657C91.65 48.014 94.862 55.763 94.862 64s-3.212 15.986-9.044 21.819a3.999 3.999 0 1 0 5.656 5.656c7.344-7.344 11.388-17.101 11.388-27.475s-4.044-20.131-11.387-27.475z" fill="#2f80ed" data-original="#000000" opacity="1"></path><path d="M106.828 21.171a4 4 0 1 0-5.656 5.657C111.107 36.765 116.58 49.966 116.58 64s-5.473 27.235-15.408 37.171a3.999 3.999 0 0 0 2.828 6.828 3.99 3.99 0 0 0 2.828-1.171C118.275 95.381 124.58 80.171 124.58 64s-6.305-31.381-17.752-42.829z" fill="#2f80ed" data-original="#000000" opacity="1"></path></g></svg>