<svg xmlns="http://www.w3.org/2000/svg" version="1.1" xmlns:xlink="http://www.w3.org/1999/xlink" xmlns:svgjs="http://svgjs.com/svgjs" width="512" height="512" x="0" y="0" viewBox="0 0 128 128" style="enable-background:new 0 0 512 512" xml:space="preserve" class=""><g><path d="M112 24H63.432C61.643 17.119 55.433 12 48 12s-13.643 5.119-15.432 12H16a4 4 0 0 0 0 8h16.568C34.357 38.881 40.567 44 48 44s13.643-5.119 15.432-12H112a4 4 0 0 0 0-8zM48 36c-4.412 0-8-3.588-8-8s3.588-8 8-8 8 3.588 8 8-3.588 8-8 8zm64 24H95.432C93.643 53.119 87.433 48 80 48s-13.643 5.119-15.432 12H16a4 4 0 0 0 0 8h48.568C66.357 74.881 72.567 80 80 80s13.643-5.119 15.432-12H112a4 4 0 0 0 0-8zM80 72c-4.412 0-8-3.588-8-8s3.588-8 8-8 8 3.588 8 8-3.588 8-8 8zm32 24H63.432C61.643 89.119 55.433 84 48 84s-13.643 5.119-15.432 12H16a4 4 0 0 0 0 8h16.568c1.789 6.881 7.999 12 15.432 12s13.643-5.119 15.432-12H112a4 4 0 0 0 0-8zm-64 12c-4.412 0-8-3.588-8-8s3.588-8 8-8 8 3.588 8 8-3.588 8-8 8z" fill="#2f80ed" data-original="#000000" opacity="1"></path></g></svg>