<svg xmlns="http://www.w3.org/2000/svg" version="1.1" xmlns:xlink="http://www.w3.org/1999/xlink" xmlns:svgjs="http://svgjs.com/svgjs" width="512" height="512" x="0" y="0" viewBox="0 0 32 32" style="enable-background:new 0 0 512 512" xml:space="preserve" class=""><g><g data-name="Layer 14"><path d="M28 10V7a1 1 0 0 0-1-1H5a1 1 0 0 0-1 1v13a2 2 0 0 0-2 2v1a3 3 0 0 0 3 3h23a2 2 0 0 0 2-2V12a2 2 0 0 0-2-2zM6 8h20v2h-5a2 2 0 0 0-2 2v8.59l-.41.41h-5.18l-.7-.71A1 1 0 0 0 12 20H6zM5 24a1 1 0 0 1-1-1v-1h7.59l.7.71A1 1 0 0 0 13 23h6v1zm23 0h-7V12h7z" fill="#2f80ed" data-original="#000000" opacity="1" class=""></path><path d="M25 21h-1a1 1 0 0 0 0 2h1a1 1 0 0 0 0-2z" fill="#2f80ed" data-original="#000000" opacity="1" class=""></path></g></g></svg>