<svg xmlns="http://www.w3.org/2000/svg" version="1.1" xmlns:xlink="http://www.w3.org/1999/xlink" xmlns:svgjs="http://svgjs.com/svgjs" width="512" height="512" x="0" y="0" viewBox="0 0 438.767 438.767" style="enable-background:new 0 0 512 512" xml:space="preserve" class=""><g><path d="M341.691 159.147a10.664 10.664 0 0 0-6.4-2.133h-81.707L334.438 16c2.946-5.102 1.198-11.625-3.904-14.571A10.67 10.67 0 0 0 325.265 0H211.771a10.667 10.667 0 0 0-9.6 6.187l-108.373 227.2c-2.474 5.346-.146 11.686 5.2 14.16 1.38.639 2.88.975 4.4.986h81.493L126.224 425.6a10.667 10.667 0 0 0 6.187 11.947 10.666 10.666 0 0 0 13.44-2.987l197.973-260.48c3.535-4.713 2.58-11.399-2.133-14.933zm-174.08 212.266 43.093-130.987c1.885-5.581-1.111-11.634-6.692-13.519a10.685 10.685 0 0 0-3.335-.561h-79.573l97.28-206.08h88.747l-81.067 142.08c-2.946 5.102-1.198 11.625 3.904 14.571a10.67 10.67 0 0 0 5.269 1.429h78.72L167.611 371.413z" fill="#2f80ed" data-original="#000000" opacity="1"></path></g></svg>