<svg width="78" height="78" viewBox="0 0 78 78" fill="none" xmlns="http://www.w3.org/2000/svg">
<path d="M70.9313 47.8969C71.0531 46.1906 70.5656 44.2406 70.2 42.9C68.7375 37.5375 67.1531 32.0531 65.6906 26.6906C64.8375 23.6437 63.9844 20.475 63.1313 17.4281C62.5219 15.3562 61.3031 13.7719 58.9875 15.1125C57.1594 16.2094 55.3313 17.3062 53.625 18.4031C49.6031 15.2344 45.4594 12.0656 41.4375 8.89686C39.7313 7.55624 38.2688 7.43436 36.9281 9.14061C28.1531 20.475 19.2563 31.5656 10.6031 42.9C9.38439 44.4844 7.55626 46.1906 6.94689 48.1406C6.33751 50.2125 8.04376 51.0656 9.75001 51.0656H67.8844C69.9563 50.9437 70.8094 49.6031 70.9313 47.8969ZM37.05 16.575C37.9031 15.6 38.6344 14.5031 39.4875 13.5281C42.6563 16.0875 45.9469 18.525 49.1156 21.0844C46.6781 22.5469 44.2406 24.0094 41.925 25.4719C34.3688 30.1031 26.8125 34.7344 19.1344 39.4875C25.1063 31.8094 31.0781 24.1312 37.05 16.575Z" fill="white"/>
</svg>
